<mxfile host="app.diagrams.net" modified="2023-05-21T13:12:10.025Z" agent="Mozilla/5.0 (Windows NT 10.0; Win64; x64) AppleWebKit/537.36 (KHTML, like Gecko) Chrome/112.0.0.0 Safari/537.36" etag="zomvH__tpT9iLVYJfWQ_" version="21.3.2" type="github">
  <diagram name="ページ1" id="I_qSTswGrK-BtdH_KTmD">
    <mxGraphModel dx="1123" dy="685" grid="1" gridSize="10" guides="1" tooltips="1" connect="1" arrows="1" fold="1" page="1" pageScale="1" pageWidth="827" pageHeight="1169" background="#ffffff" math="0" shadow="0">
      <root>
        <mxCell id="0" />
        <mxCell id="1" parent="0" />
        <mxCell id="I6vCxaIr1k0wqGamkmmP-1" value="" style="rounded=0;whiteSpace=wrap;html=1;fillColor=#A9C4EB;strokeColor=none;" vertex="1" parent="1">
          <mxGeometry x="130" y="80" width="630" height="160" as="geometry" />
        </mxCell>
        <mxCell id="I6vCxaIr1k0wqGamkmmP-2" value="&lt;font style=&quot;font-size: 24px;&quot;&gt;1&lt;sup&gt;st&lt;/sup&gt; stage&lt;/font&gt;" style="text;html=1;strokeColor=none;fillColor=none;align=center;verticalAlign=middle;whiteSpace=wrap;rounded=0;fontSize=24;fontFamily=Times New Roman;fontColor=#000000;" vertex="1" parent="1">
          <mxGeometry x="70" y="145" width="60" height="30" as="geometry" />
        </mxCell>
        <mxCell id="I6vCxaIr1k0wqGamkmmP-5" value="" style="rounded=0;whiteSpace=wrap;html=1;fillColor=#99FFCC;strokeColor=none;" vertex="1" parent="1">
          <mxGeometry x="130" y="240" width="630" height="180" as="geometry" />
        </mxCell>
        <mxCell id="I6vCxaIr1k0wqGamkmmP-6" value="&lt;font style=&quot;font-size: 24px;&quot;&gt;2&lt;sup&gt;nd&lt;/sup&gt; stage&lt;/font&gt;" style="text;html=1;strokeColor=none;fillColor=none;align=center;verticalAlign=middle;whiteSpace=wrap;rounded=0;fontSize=24;fontFamily=Times New Roman;fontColor=#000000;" vertex="1" parent="1">
          <mxGeometry x="70" y="305" width="60" height="30" as="geometry" />
        </mxCell>
        <mxCell id="I6vCxaIr1k0wqGamkmmP-7" value="&lt;font style=&quot;font-size: 24px;&quot;&gt;3&lt;sup&gt;rd&lt;/sup&gt; stage&lt;/font&gt;" style="text;html=1;strokeColor=none;fillColor=none;align=center;verticalAlign=middle;whiteSpace=wrap;rounded=0;fontSize=24;fontColor=#000000;fontFamily=Times New Roman;" vertex="1" parent="1">
          <mxGeometry x="70" y="495" width="60" height="30" as="geometry" />
        </mxCell>
        <mxCell id="I6vCxaIr1k0wqGamkmmP-8" value="" style="rounded=0;whiteSpace=wrap;html=1;fillColor=#E6FFCC;strokeColor=none;" vertex="1" parent="1">
          <mxGeometry x="130" y="420" width="630" height="180" as="geometry" />
        </mxCell>
        <mxCell id="I6vCxaIr1k0wqGamkmmP-9" value="&lt;font style=&quot;font-size: 24px;&quot; face=&quot;Times New Roman&quot;&gt;T&lt;/font&gt;" style="ellipse;whiteSpace=wrap;html=1;aspect=fixed;fillColor=#0050ef;fontColor=#ffffff;strokeColor=none;" vertex="1" parent="1">
          <mxGeometry x="690" y="100" width="50" height="50" as="geometry" />
        </mxCell>
        <mxCell id="I6vCxaIr1k0wqGamkmmP-10" value="&lt;font style=&quot;font-size: 24px;&quot; face=&quot;Times New Roman&quot;&gt;P&lt;/font&gt;" style="ellipse;whiteSpace=wrap;html=1;aspect=fixed;fillColor=#0050ef;fontColor=#ffffff;strokeColor=none;" vertex="1" parent="1">
          <mxGeometry x="560" y="95" width="60" height="60" as="geometry" />
        </mxCell>
        <mxCell id="I6vCxaIr1k0wqGamkmmP-12" value="" style="endArrow=block;html=1;rounded=0;strokeWidth=4;endFill=1;" edge="1" parent="1">
          <mxGeometry width="50" height="50" relative="1" as="geometry">
            <mxPoint x="680" y="125" as="sourcePoint" />
            <mxPoint x="630" y="125" as="targetPoint" />
          </mxGeometry>
        </mxCell>
        <mxCell id="I6vCxaIr1k0wqGamkmmP-13" value="" style="ellipse;whiteSpace=wrap;html=1;aspect=fixed;strokeColor=#001DBC;fillColor=#0050ef;fontColor=#ffffff;" vertex="1" parent="1">
          <mxGeometry x="450" y="210" width="60" height="60" as="geometry" />
        </mxCell>
        <mxCell id="I6vCxaIr1k0wqGamkmmP-14" value="" style="ellipse;whiteSpace=wrap;html=1;aspect=fixed;strokeColor=#001DBC;fillColor=#0050ef;fontColor=#ffffff;" vertex="1" parent="1">
          <mxGeometry x="510" y="215" width="50" height="50" as="geometry" />
        </mxCell>
        <mxCell id="I6vCxaIr1k0wqGamkmmP-15" value="" style="endArrow=block;html=1;rounded=0;strokeWidth=4;endFill=1;strokeColor=#000000;" edge="1" parent="1">
          <mxGeometry width="50" height="50" relative="1" as="geometry">
            <mxPoint x="560" y="155" as="sourcePoint" />
            <mxPoint x="520" y="195" as="targetPoint" />
          </mxGeometry>
        </mxCell>
        <mxCell id="I6vCxaIr1k0wqGamkmmP-16" value="" style="endArrow=block;html=1;rounded=0;strokeWidth=4;endFill=1;strokeColor=#000000;" edge="1" parent="1">
          <mxGeometry width="50" height="50" relative="1" as="geometry">
            <mxPoint x="440" y="324" as="sourcePoint" />
            <mxPoint x="540" y="338" as="targetPoint" />
          </mxGeometry>
        </mxCell>
        <mxCell id="I6vCxaIr1k0wqGamkmmP-17" value="" style="ellipse;whiteSpace=wrap;html=1;fillColor=#1ba1e2;fontColor=#ffffff;strokeColor=none;" vertex="1" parent="1">
          <mxGeometry x="560" y="320" width="60" height="50" as="geometry" />
        </mxCell>
        <mxCell id="I6vCxaIr1k0wqGamkmmP-18" value="" style="ellipse;whiteSpace=wrap;html=1;fillColor=#1ba1e2;fontColor=#ffffff;strokeColor=none;" vertex="1" parent="1">
          <mxGeometry x="640" y="330" width="40" height="30" as="geometry" />
        </mxCell>
        <mxCell id="I6vCxaIr1k0wqGamkmmP-19" value="&lt;font style=&quot;font-size: 18px;&quot;&gt;Quasi-fission 90~99%&lt;/font&gt;" style="text;html=1;strokeColor=none;fillColor=none;align=center;verticalAlign=middle;whiteSpace=wrap;rounded=0;fontSize=18;fontFamily=Times New Roman;fontColor=#000000;" vertex="1" parent="1">
          <mxGeometry x="550" y="290" width="165" height="30" as="geometry" />
        </mxCell>
        <mxCell id="I6vCxaIr1k0wqGamkmmP-21" value="&lt;font style=&quot;font-size: 18px;&quot;&gt;QF&lt;/font&gt;" style="text;html=1;strokeColor=none;fillColor=none;align=center;verticalAlign=middle;whiteSpace=wrap;rounded=0;fontSize=18;fontFamily=Times New Roman;fontColor=#000000;" vertex="1" parent="1">
          <mxGeometry x="550" y="360" width="165" height="30" as="geometry" />
        </mxCell>
        <mxCell id="I6vCxaIr1k0wqGamkmmP-23" value="" style="ellipse;whiteSpace=wrap;html=1;aspect=fixed;strokeColor=none;fillColor=#0050ef;fontColor=#ffffff;" vertex="1" parent="1">
          <mxGeometry x="380" y="295" width="50" height="50" as="geometry" />
        </mxCell>
        <mxCell id="I6vCxaIr1k0wqGamkmmP-26" value="" style="verticalLabelPosition=bottom;verticalAlign=top;html=1;shape=mxgraph.basic.drop;rotation=90;fillColor=#0050ef;fontColor=#ffffff;strokeColor=none;" vertex="1" parent="1">
          <mxGeometry x="354" y="275" width="60" height="90" as="geometry" />
        </mxCell>
        <mxCell id="I6vCxaIr1k0wqGamkmmP-29" value="" style="endArrow=block;html=1;rounded=0;strokeWidth=4;endFill=1;strokeColor=#000000;" edge="1" parent="1">
          <mxGeometry width="50" height="50" relative="1" as="geometry">
            <mxPoint x="446" y="258" as="sourcePoint" />
            <mxPoint x="400" y="290" as="targetPoint" />
          </mxGeometry>
        </mxCell>
        <mxCell id="I6vCxaIr1k0wqGamkmmP-30" value="&lt;font style=&quot;font-size: 24px;&quot; face=&quot;Times New Roman&quot;&gt;CN&lt;/font&gt;" style="ellipse;whiteSpace=wrap;html=1;aspect=fixed;strokeColor=none;fillColor=#0050ef;fontColor=#ffffff;" vertex="1" parent="1">
          <mxGeometry x="270" y="390" width="60" height="60" as="geometry" />
        </mxCell>
        <mxCell id="I6vCxaIr1k0wqGamkmmP-31" value="" style="endArrow=block;html=1;rounded=0;strokeWidth=4;endFill=1;strokeColor=#000000;" edge="1" parent="1">
          <mxGeometry width="50" height="50" relative="1" as="geometry">
            <mxPoint x="345" y="348" as="sourcePoint" />
            <mxPoint x="317" y="387" as="targetPoint" />
          </mxGeometry>
        </mxCell>
        <mxCell id="I6vCxaIr1k0wqGamkmmP-32" value="&lt;font style=&quot;font-size: 24px;&quot; face=&quot;Times New Roman&quot;&gt;ER&lt;/font&gt;" style="ellipse;whiteSpace=wrap;html=1;aspect=fixed;strokeColor=none;fillColor=#0050ef;fontColor=#ffffff;" vertex="1" parent="1">
          <mxGeometry x="200" y="530" width="60" height="60" as="geometry" />
        </mxCell>
        <mxCell id="I6vCxaIr1k0wqGamkmmP-33" value="" style="endArrow=block;html=1;rounded=0;strokeWidth=4;endFill=1;strokeColor=#000000;" edge="1" parent="1">
          <mxGeometry width="50" height="50" relative="1" as="geometry">
            <mxPoint x="281" y="455" as="sourcePoint" />
            <mxPoint x="244" y="524" as="targetPoint" />
          </mxGeometry>
        </mxCell>
        <mxCell id="I6vCxaIr1k0wqGamkmmP-34" value="" style="endArrow=block;html=1;rounded=0;strokeWidth=4;endFill=1;strokeColor=#000000;" edge="1" parent="1">
          <mxGeometry width="50" height="50" relative="1" as="geometry">
            <mxPoint x="330" y="450" as="sourcePoint" />
            <mxPoint x="423" y="515" as="targetPoint" />
          </mxGeometry>
        </mxCell>
        <mxCell id="I6vCxaIr1k0wqGamkmmP-35" value="" style="ellipse;whiteSpace=wrap;html=1;fillColor=#1ba1e2;fontColor=#ffffff;strokeColor=none;" vertex="1" parent="1">
          <mxGeometry x="450" y="520" width="60" height="50" as="geometry" />
        </mxCell>
        <mxCell id="I6vCxaIr1k0wqGamkmmP-36" value="" style="ellipse;whiteSpace=wrap;html=1;fillColor=#1ba1e2;fontColor=#ffffff;strokeColor=none;" vertex="1" parent="1">
          <mxGeometry x="530" y="530" width="40" height="30" as="geometry" />
        </mxCell>
        <mxCell id="I6vCxaIr1k0wqGamkmmP-37" value="&lt;font style=&quot;font-size: 18px;&quot;&gt;Fusion-fission&amp;nbsp;&lt;/font&gt;" style="text;html=1;strokeColor=none;fillColor=none;align=center;verticalAlign=middle;whiteSpace=wrap;rounded=0;fontSize=18;fontFamily=Times New Roman;fontColor=#000000;" vertex="1" parent="1">
          <mxGeometry x="440" y="490" width="165" height="30" as="geometry" />
        </mxCell>
        <mxCell id="I6vCxaIr1k0wqGamkmmP-38" value="&lt;font style=&quot;font-size: 18px;&quot;&gt;FF&lt;/font&gt;" style="text;html=1;strokeColor=none;fillColor=none;align=center;verticalAlign=middle;whiteSpace=wrap;rounded=0;fontSize=18;fontFamily=Times New Roman;fontColor=#000000;" vertex="1" parent="1">
          <mxGeometry x="440" y="560" width="165" height="30" as="geometry" />
        </mxCell>
        <mxCell id="I6vCxaIr1k0wqGamkmmP-39" value="" style="ellipse;whiteSpace=wrap;html=1;aspect=fixed;strokeColor=#001DBC;fillColor=#0050ef;fontColor=#ffffff;" vertex="1" parent="1">
          <mxGeometry x="270" y="530" width="10" height="10" as="geometry" />
        </mxCell>
        <mxCell id="I6vCxaIr1k0wqGamkmmP-41" value="" style="edgeStyle=orthogonalEdgeStyle;rounded=0;orthogonalLoop=1;jettySize=auto;html=1;" edge="1" parent="1" source="I6vCxaIr1k0wqGamkmmP-40" target="I6vCxaIr1k0wqGamkmmP-39">
          <mxGeometry relative="1" as="geometry" />
        </mxCell>
        <mxCell id="I6vCxaIr1k0wqGamkmmP-40" value="" style="ellipse;whiteSpace=wrap;html=1;aspect=fixed;strokeColor=#001DBC;fillColor=#0050ef;fontColor=#ffffff;" vertex="1" parent="1">
          <mxGeometry x="190" y="510" width="10" height="10" as="geometry" />
        </mxCell>
        <mxCell id="I6vCxaIr1k0wqGamkmmP-42" value="&lt;font style=&quot;font-size: 18px;&quot;&gt;n&lt;/font&gt;" style="text;html=1;strokeColor=none;fillColor=none;align=center;verticalAlign=middle;whiteSpace=wrap;rounded=0;fontSize=18;fontFamily=Times New Roman;fontColor=#000000;" vertex="1" parent="1">
          <mxGeometry x="181.25" y="480" width="27.5" height="30" as="geometry" />
        </mxCell>
        <mxCell id="I6vCxaIr1k0wqGamkmmP-43" value="&lt;font style=&quot;font-size: 24px;&quot;&gt;W&lt;sub style=&quot;font-size: 24px;&quot;&gt;sur&lt;/sub&gt;&lt;/font&gt;" style="text;html=1;strokeColor=none;fillColor=#FFE6CC;align=center;verticalAlign=middle;whiteSpace=wrap;rounded=0;fontSize=24;fontFamily=Times New Roman;fontColor=#000000;" vertex="1" parent="1">
          <mxGeometry x="130" y="570" width="58.75" height="30" as="geometry" />
        </mxCell>
        <mxCell id="I6vCxaIr1k0wqGamkmmP-44" value="&lt;font style=&quot;&quot;&gt;P&lt;sub style=&quot;&quot;&gt;&lt;font style=&quot;font-size: 15px;&quot;&gt;CN&lt;/font&gt;&lt;/sub&gt;&lt;/font&gt;" style="text;html=1;strokeColor=none;fillColor=#FFE6CC;align=center;verticalAlign=middle;whiteSpace=wrap;rounded=0;fontSize=24;fontFamily=Times New Roman;fontColor=#000000;" vertex="1" parent="1">
          <mxGeometry x="130" y="390" width="58.75" height="30" as="geometry" />
        </mxCell>
        <mxCell id="I6vCxaIr1k0wqGamkmmP-45" value="&lt;font style=&quot;&quot;&gt;T&lt;sub style=&quot;&quot;&gt;&lt;font style=&quot;font-size: 20px;&quot;&gt;l&lt;/font&gt;&lt;/sub&gt;&lt;/font&gt;" style="text;html=1;strokeColor=none;fillColor=#FFE6CC;align=center;verticalAlign=middle;whiteSpace=wrap;rounded=0;fontSize=24;fontFamily=Times New Roman;fontColor=#000000;" vertex="1" parent="1">
          <mxGeometry x="130" y="210" width="58.75" height="30" as="geometry" />
        </mxCell>
        <mxCell id="I6vCxaIr1k0wqGamkmmP-46" value="&lt;font style=&quot;font-size: 18px;&quot;&gt;Touching probability&lt;/font&gt;" style="text;html=1;strokeColor=none;fillColor=none;align=center;verticalAlign=middle;whiteSpace=wrap;rounded=0;fontSize=18;fontFamily=Times New Roman;fontColor=#000000;fontStyle=1" vertex="1" parent="1">
          <mxGeometry x="188.75" y="210" width="165" height="30" as="geometry" />
        </mxCell>
        <mxCell id="I6vCxaIr1k0wqGamkmmP-47" value="&lt;font style=&quot;font-size: 18px;&quot;&gt;Formation probability&lt;/font&gt;" style="text;html=1;strokeColor=none;fillColor=none;align=center;verticalAlign=middle;whiteSpace=wrap;rounded=0;fontSize=18;fontFamily=Times New Roman;fontColor=#000000;fontStyle=1" vertex="1" parent="1">
          <mxGeometry x="130" y="360" width="180" height="30" as="geometry" />
        </mxCell>
        <mxCell id="I6vCxaIr1k0wqGamkmmP-48" value="&lt;font style=&quot;font-size: 18px;&quot;&gt;Survival probability&lt;/font&gt;" style="text;html=1;strokeColor=none;fillColor=none;align=center;verticalAlign=middle;whiteSpace=wrap;rounded=0;fontSize=18;fontFamily=Times New Roman;fontColor=#000000;fontStyle=1" vertex="1" parent="1">
          <mxGeometry x="270" y="570" width="180" height="30" as="geometry" />
        </mxCell>
        <mxCell id="I6vCxaIr1k0wqGamkmmP-50" value="Reaction time &lt;i&gt;t&lt;/i&gt; &amp;lt; 10&lt;sup&gt;-22&lt;/sup&gt;s" style="text;html=1;strokeColor=none;fillColor=none;align=center;verticalAlign=middle;whiteSpace=wrap;rounded=0;fontColor=#000000;fontFamily=Times New Roman;fontSize=18;" vertex="1" parent="1">
          <mxGeometry x="130" y="80" width="190" height="30" as="geometry" />
        </mxCell>
        <mxCell id="I6vCxaIr1k0wqGamkmmP-51" value="10&lt;sup&gt;-22&lt;/sup&gt;&amp;nbsp;&amp;lt;&amp;nbsp;&lt;i&gt;t&lt;/i&gt; &amp;lt; 10&lt;sup&gt;-18&lt;/sup&gt;s" style="text;html=1;strokeColor=none;fillColor=none;align=center;verticalAlign=middle;whiteSpace=wrap;rounded=0;fontColor=#000000;fontFamily=Times New Roman;fontSize=18;" vertex="1" parent="1">
          <mxGeometry x="130" y="240" width="140" height="30" as="geometry" />
        </mxCell>
        <mxCell id="I6vCxaIr1k0wqGamkmmP-52" value="~10&lt;sup&gt;-18&lt;/sup&gt;&amp;nbsp;&amp;lt;&amp;nbsp;&lt;i&gt;t&lt;/i&gt;&amp;nbsp;[s]" style="text;html=1;strokeColor=none;fillColor=none;align=center;verticalAlign=middle;whiteSpace=wrap;rounded=0;fontColor=#000000;fontFamily=Times New Roman;fontSize=18;" vertex="1" parent="1">
          <mxGeometry x="130" y="420" width="110" height="30" as="geometry" />
        </mxCell>
      </root>
    </mxGraphModel>
  </diagram>
</mxfile>
